<svg width="289" height="205" viewBox="0 0 289 205" fill="none" xmlns="http://www.w3.org/2000/svg">
<g clip-path="url(#clip0_2121_2270)">
<path d="M164.81 23.1638H215.299C221.952 23.1638 227.345 28.5566 227.345 35.209V74.82C227.345 81.4724 221.952 86.8652 215.299 86.8652H83.7288C77.0764 86.8652 71.6836 92.2581 71.6836 98.9104V138.056C71.6836 144.709 77.0764 150.102 83.7288 150.102H215.299C221.952 150.102 227.345 155.494 227.345 162.147V195.503" stroke="#E3B335" stroke-width="2.77966" stroke-linecap="round" stroke-dasharray="5.56 5.56"/>
<rect x="-8" y="139.91" width="328" height="64.8588" fill="url(#paint0_linear_2121_2270)"/>
<rect x="11.4575" width="159.367" height="43.548" rx="9.26554" fill="#F3F3F3"/>
<path d="M33.6424 20.6228H31.9998C31.9367 20.2718 31.8191 19.9629 31.6471 19.6962C31.4752 19.4295 31.2646 19.2031 31.0154 19.0171C30.7662 18.8311 30.4872 18.6907 30.1783 18.5959C29.873 18.5012 29.5483 18.4538 29.2044 18.4538C28.5832 18.4538 28.0269 18.61 27.5355 18.9223C27.0477 19.2347 26.6616 19.6927 26.3774 20.2964C26.0966 20.9 25.9562 21.6371 25.9562 22.5075C25.9562 23.3849 26.0966 24.1254 26.3774 24.7291C26.6616 25.3327 27.0495 25.789 27.5408 26.0979C28.0322 26.4067 28.5849 26.5611 29.1991 26.5611C29.5396 26.5611 29.8625 26.5155 30.1678 26.4243C30.4767 26.3295 30.7557 26.1909 31.0049 26.0084C31.254 25.8259 31.4646 25.603 31.6366 25.3398C31.8121 25.073 31.9332 24.7677 31.9998 24.4237L33.6424 24.429C33.5546 24.959 33.3844 25.4468 33.1317 25.8925C32.8825 26.3348 32.5614 26.7173 32.1683 27.0402C31.7787 27.3596 31.333 27.607 30.8311 27.7825C30.3292 27.958 29.7817 28.0457 29.1886 28.0457C28.255 28.0457 27.4232 27.8246 26.6932 27.3824C25.9632 26.9367 25.3876 26.2997 24.9665 25.4714C24.5488 24.6431 24.34 23.6551 24.34 22.5075C24.34 21.3563 24.5506 20.3683 24.9717 19.5435C25.3929 18.7153 25.9685 18.08 26.6985 17.6378C27.4285 17.1921 28.2585 16.9692 29.1886 16.9692C29.7607 16.9692 30.2941 17.0517 30.789 17.2166C31.2874 17.3781 31.7349 17.6167 32.1315 17.9326C32.5281 18.245 32.8562 18.6275 33.1159 19.0803C33.3756 19.5295 33.5511 20.0437 33.6424 20.6228ZM35.4626 27.8983V19.812H36.984V21.0966H37.0683C37.2157 20.6614 37.4754 20.3192 37.8474 20.07C38.2229 19.8173 38.6476 19.6909 39.1214 19.6909C39.2197 19.6909 39.3355 19.6945 39.4689 19.7015C39.6057 19.7085 39.7128 19.7173 39.79 19.7278V21.2334C39.7268 21.2159 39.6145 21.1966 39.4531 21.1755C39.2916 21.151 39.1302 21.1387 38.9687 21.1387C38.5967 21.1387 38.2651 21.2177 37.9737 21.3756C37.686 21.53 37.4578 21.7459 37.2894 22.0231C37.1209 22.2969 37.0367 22.6092 37.0367 22.9602V27.8983H35.4626ZM44.3478 28.0615C43.5511 28.0615 42.8649 27.8913 42.2893 27.5509C41.7173 27.2069 41.275 26.7243 40.9627 26.1031C40.6538 25.4784 40.4994 24.7466 40.4994 23.9078C40.4994 23.0795 40.6538 22.3495 40.9627 21.7178C41.275 21.086 41.7102 20.5929 42.2683 20.2385C42.8298 19.884 43.4861 19.7067 44.2372 19.7067C44.6935 19.7067 45.1357 19.7822 45.5639 19.9331C45.992 20.084 46.3763 20.3209 46.7168 20.6438C47.0572 20.9667 47.3257 21.3861 47.5223 21.902C47.7188 22.4145 47.8171 23.0374 47.8171 23.7709V24.329H41.3891V23.1497H46.2746C46.2746 22.7356 46.1903 22.3688 46.0219 22.0494C45.8534 21.7266 45.6165 21.4721 45.3112 21.2861C45.0093 21.1001 44.6549 21.0071 44.2477 21.0071C43.8055 21.0071 43.4194 21.1159 43.0895 21.3335C42.7631 21.5476 42.5104 21.8283 42.3314 22.1758C42.156 22.5197 42.0682 22.8935 42.0682 23.2971V24.2184C42.0682 24.7589 42.163 25.2187 42.3525 25.5977C42.5455 25.9768 42.814 26.2663 43.158 26.4664C43.5019 26.6629 43.9038 26.7612 44.3635 26.7612C44.6619 26.7612 44.9339 26.7191 45.1795 26.6348C45.4252 26.5471 45.6376 26.4172 45.8166 26.2453C45.9955 26.0733 46.1324 25.861 46.2272 25.6083L47.717 25.8767C47.5977 26.3155 47.3836 26.6998 47.0748 27.0297C46.7694 27.3561 46.3851 27.6105 45.9218 27.793C45.4621 27.972 44.9374 28.0615 44.3478 28.0615ZM51.9168 28.0773C51.4044 28.0773 50.9411 27.9825 50.527 27.793C50.1128 27.6 49.7847 27.321 49.5425 26.956C49.3039 26.591 49.1845 26.1435 49.1845 25.6135C49.1845 25.1573 49.2723 24.7817 49.4477 24.4869C49.6232 24.1921 49.8601 23.9587 50.1585 23.7867C50.4568 23.6148 50.7902 23.4849 51.1587 23.3972C51.5272 23.3094 51.9028 23.2427 52.2853 23.1971C52.7697 23.141 53.1627 23.0953 53.4646 23.0602C53.7664 23.0216 53.9858 22.9602 54.1226 22.876C54.2595 22.7917 54.3279 22.6549 54.3279 22.4653V22.4285C54.3279 21.9687 54.1981 21.6125 53.9384 21.3598C53.6822 21.1071 53.2996 20.9807 52.7907 20.9807C52.2608 20.9807 51.8431 21.0983 51.5378 21.3335C51.2359 21.5651 51.0271 21.8231 50.9113 22.1074L49.432 21.7704C49.6074 21.2791 49.8636 20.8825 50.2006 20.5806C50.541 20.2753 50.9323 20.0542 51.3746 19.9173C51.8168 19.7769 52.2818 19.7067 52.7697 19.7067C53.0925 19.7067 53.4347 19.7453 53.7962 19.8226C54.1612 19.8963 54.5017 20.0331 54.8175 20.2332C55.1369 20.4332 55.3984 20.7193 55.602 21.0913C55.8055 21.4598 55.9073 21.9389 55.9073 22.5285V27.8983H54.3701V26.7928H54.3069C54.2051 26.9963 54.0524 27.1964 53.8489 27.3929C53.6453 27.5895 53.3838 27.7527 53.0645 27.8825C52.7451 28.0124 52.3625 28.0773 51.9168 28.0773ZM52.259 26.8138C52.6942 26.8138 53.0662 26.7278 53.3751 26.5559C53.6874 26.3839 53.9243 26.1593 54.0858 25.882C54.2507 25.6012 54.3332 25.3012 54.3332 24.9818V23.9394C54.2771 23.9956 54.1683 24.0482 54.0068 24.0973C53.8489 24.143 53.6681 24.1833 53.4646 24.2184C53.261 24.25 53.0627 24.2798 52.8697 24.3079C52.6766 24.3325 52.5152 24.3535 52.3853 24.3711C52.08 24.4097 51.801 24.4746 51.5483 24.5659C51.2991 24.6571 51.0991 24.7887 50.9481 24.9607C50.8007 25.1292 50.727 25.3538 50.727 25.6346C50.727 26.0242 50.8709 26.319 51.1587 26.519C51.4465 26.7156 51.8133 26.8138 52.259 26.8138ZM61.7785 19.812V21.0755H57.3616V19.812H61.7785ZM58.5461 17.8747H60.1202V25.524C60.1202 25.8294 60.1658 26.0592 60.2571 26.2137C60.3484 26.3646 60.4659 26.4681 60.6098 26.5243C60.7572 26.5769 60.9169 26.6032 61.0889 26.6032C61.2152 26.6032 61.3258 26.5945 61.4206 26.5769C61.5153 26.5594 61.589 26.5453 61.6417 26.5348L61.926 27.8351C61.8347 27.8702 61.7048 27.9053 61.5364 27.9404C61.3679 27.979 61.1573 28.0001 60.9046 28.0036C60.4905 28.0106 60.1044 27.9369 59.7464 27.7825C59.3885 27.6281 59.0989 27.3894 58.8778 27.0665C58.6567 26.7436 58.5461 26.3383 58.5461 25.8504V17.8747ZM66.918 28.0615C66.1213 28.0615 65.4352 27.8913 64.8596 27.5509C64.2875 27.2069 63.8453 26.7243 63.5329 26.1031C63.2241 25.4784 63.0697 24.7466 63.0697 23.9078C63.0697 23.0795 63.2241 22.3495 63.5329 21.7178C63.8453 21.086 64.2805 20.5929 64.8385 20.2385C65.4001 19.884 66.0564 19.7067 66.8075 19.7067C67.2637 19.7067 67.7059 19.7822 68.1341 19.9331C68.5623 20.084 68.9466 20.3209 69.2871 20.6438C69.6275 20.9667 69.896 21.3861 70.0925 21.902C70.2891 22.4145 70.3873 23.0374 70.3873 23.7709V24.329H63.9594V23.1497H68.8448C68.8448 22.7356 68.7606 22.3688 68.5921 22.0494C68.4237 21.7266 68.1868 21.4721 67.8814 21.2861C67.5796 21.1001 67.2251 21.0071 66.818 21.0071C66.3758 21.0071 65.9897 21.1159 65.6598 21.3335C65.3334 21.5476 65.0807 21.8283 64.9017 22.1758C64.7262 22.5197 64.6385 22.8935 64.6385 23.2971V24.2184C64.6385 24.7589 64.7333 25.2187 64.9228 25.5977C65.1158 25.9768 65.3843 26.2663 65.7282 26.4664C66.0722 26.6629 66.4741 26.7612 66.9338 26.7612C67.2321 26.7612 67.5041 26.7191 67.7498 26.6348C67.9955 26.5471 68.2078 26.4172 68.3868 26.2453C68.5658 26.0733 68.7027 25.861 68.7975 25.6083L70.2873 25.8767C70.168 26.3155 69.9539 26.6998 69.645 27.0297C69.3397 27.3561 68.9554 27.6105 68.4921 27.793C68.0323 27.972 67.5076 28.0615 66.918 28.0615Z" fill="black" fill-opacity="0.6"/>
<path d="M78.1367 23.2234V27.8983H75.894V17.1166H78.0735V21.2387H78.1683C78.3508 20.7614 78.6456 20.3876 79.0527 20.1174C79.4598 19.8436 79.9705 19.7067 80.5847 19.7067C81.1462 19.7067 81.6358 19.8296 82.0535 20.0753C82.4747 20.3174 82.801 20.6666 83.0327 21.1229C83.2678 21.5756 83.3837 22.1179 83.3801 22.7496V27.8983H81.1375V23.1497C81.141 22.6514 81.0146 22.2635 80.7584 21.9863C80.5057 21.709 80.1512 21.5704 79.695 21.5704C79.3896 21.5704 79.1194 21.6353 78.8843 21.7652C78.6526 21.895 78.4701 22.0845 78.3367 22.3337C78.2069 22.5794 78.1402 22.876 78.1367 23.2234ZM88.8302 28.0563C87.9984 28.0563 87.2825 27.8878 86.6823 27.5509C86.0857 27.2104 85.6259 26.7296 85.303 26.1084C84.9801 25.4837 84.8187 24.7449 84.8187 23.892C84.8187 23.0602 84.9801 22.3302 85.303 21.702C85.6259 21.0738 86.0804 20.5842 86.6665 20.2332C87.2561 19.8822 87.9475 19.7067 88.7407 19.7067C89.2742 19.7067 89.7708 19.7927 90.2306 19.9647C90.6939 20.1332 91.0975 20.3876 91.4414 20.7281C91.7889 21.0685 92.0591 21.4967 92.2522 22.0126C92.4452 22.525 92.5417 23.1252 92.5417 23.8131V24.429H85.7136V23.0392H90.4306C90.4306 22.7163 90.3604 22.4302 90.2201 22.1811C90.0797 21.9319 89.8849 21.7371 89.6357 21.5967C89.39 21.4528 89.104 21.3809 88.7776 21.3809C88.4371 21.3809 88.1353 21.4598 87.8721 21.6178C87.6124 21.7722 87.4088 21.981 87.2614 22.2442C87.114 22.5039 87.0385 22.7935 87.035 23.1129V24.4343C87.035 24.8344 87.1087 25.1801 87.2561 25.4714C87.4071 25.7627 87.6194 25.9873 87.8931 26.1452C88.1669 26.3032 88.4915 26.3821 88.8671 26.3821C89.1163 26.3821 89.3444 26.347 89.5515 26.2768C89.7585 26.2067 89.9358 26.1014 90.0832 25.961C90.2306 25.8206 90.3429 25.6486 90.4201 25.4451L92.4943 25.5819C92.389 26.0803 92.1732 26.5155 91.8468 26.8875C91.5239 27.256 91.1062 27.5438 90.5938 27.7509C90.0849 27.9545 89.4971 28.0563 88.8302 28.0563ZM94.0052 27.8983V19.812H96.1795V21.2229H96.2637C96.4111 20.721 96.6586 20.342 97.006 20.0858C97.3535 19.8261 97.7536 19.6962 98.2063 19.6962C98.3186 19.6962 98.4397 19.7032 98.5696 19.7173C98.6994 19.7313 98.8135 19.7506 98.9118 19.7752V21.7652C98.8065 21.7336 98.6608 21.7055 98.4748 21.6809C98.2888 21.6564 98.1186 21.6441 97.9642 21.6441C97.6342 21.6441 97.3394 21.716 97.0797 21.8599C96.8235 22.0003 96.6199 22.1969 96.469 22.4495C96.3216 22.7022 96.2479 22.9935 96.2479 23.3235V27.8983H94.0052ZM103.348 28.0563C102.531 28.0563 101.823 27.8825 101.227 27.5351C100.634 27.1841 100.176 26.6963 99.8528 26.0715C99.5299 25.4433 99.3685 24.715 99.3685 23.8868C99.3685 23.0515 99.5299 22.3214 99.8528 21.6967C100.176 21.0685 100.634 20.5806 101.227 20.2332C101.823 19.8822 102.531 19.7067 103.348 19.7067C104.166 19.7067 104.872 19.8822 105.465 20.2332C106.061 20.5806 106.521 21.0685 106.844 21.6967C107.167 22.3214 107.328 23.0515 107.328 23.8868C107.328 24.715 107.167 25.4433 106.844 26.0715C106.521 26.6963 106.061 27.1841 105.465 27.5351C104.872 27.8825 104.166 28.0563 103.348 28.0563ZM103.359 26.319C103.731 26.319 104.042 26.2137 104.291 26.0031C104.54 25.789 104.728 25.4977 104.854 25.1292C104.984 24.7607 105.049 24.3413 105.049 23.871C105.049 23.4007 104.984 22.9813 104.854 22.6127C104.728 22.2442 104.54 21.9529 104.291 21.7388C104.042 21.5247 103.731 21.4177 103.359 21.4177C102.983 21.4177 102.668 21.5247 102.411 21.7388C102.159 21.9529 101.967 22.2442 101.838 22.6127C101.711 22.9813 101.648 23.4007 101.648 23.871C101.648 24.3413 101.711 24.7607 101.838 25.1292C101.967 25.4977 102.159 25.789 102.411 26.0031C102.668 26.2137 102.983 26.319 103.359 26.319ZM112.218 27.8983V19.812H114.46V27.8983H112.218ZM113.344 18.7697C113.011 18.7697 112.725 18.6591 112.486 18.438C112.251 18.2134 112.134 17.9449 112.134 17.6325C112.134 17.3237 112.251 17.0587 112.486 16.8376C112.725 16.613 113.011 16.5007 113.344 16.5007C113.678 16.5007 113.962 16.613 114.197 16.8376C114.436 17.0587 114.555 17.3237 114.555 17.6325C114.555 17.9449 114.436 18.2134 114.197 18.438C113.962 18.6591 113.678 18.7697 113.344 18.7697ZM116.257 27.8983V19.812H118.394V21.2387H118.489C118.658 20.7649 118.938 20.3911 119.331 20.1174C119.725 19.8436 120.195 19.7067 120.742 19.7067C121.297 19.7067 121.769 19.8454 122.159 20.1226C122.548 20.3964 122.808 20.7684 122.938 21.2387H123.022C123.187 20.7754 123.485 20.4052 123.917 20.1279C124.352 19.8471 124.866 19.7067 125.459 19.7067C126.214 19.7067 126.826 19.9472 127.297 20.428C127.77 20.9053 128.007 21.5827 128.007 22.4601V27.8983H125.77V22.9023C125.77 22.4531 125.651 22.1161 125.412 21.8915C125.173 21.6669 124.875 21.5546 124.517 21.5546C124.11 21.5546 123.792 21.6844 123.564 21.9442C123.336 22.2004 123.222 22.539 123.222 22.9602V27.8983H121.048V22.8549C121.048 22.4583 120.934 22.1425 120.706 21.9073C120.481 21.6722 120.184 21.5546 119.816 21.5546C119.567 21.5546 119.342 21.6178 119.142 21.7441C118.945 21.8669 118.789 22.0407 118.673 22.2653C118.558 22.4864 118.5 22.7461 118.5 23.0444V27.8983H116.257ZM132.085 28.051C131.569 28.051 131.109 27.9615 130.705 27.7825C130.302 27.6 129.982 27.3315 129.747 26.977C129.516 26.619 129.4 26.1733 129.4 25.6398C129.4 25.1906 129.482 24.8133 129.647 24.508C129.812 24.2026 130.037 23.957 130.321 23.7709C130.605 23.5849 130.928 23.4445 131.29 23.3498C131.655 23.255 132.037 23.1883 132.437 23.1497C132.908 23.1006 133.287 23.055 133.575 23.0129C133.862 22.9672 134.071 22.9005 134.201 22.8128C134.331 22.7251 134.396 22.5952 134.396 22.4232V22.3916C134.396 22.0582 134.291 21.8003 134.08 21.6178C133.873 21.4353 133.578 21.344 133.196 21.344C132.792 21.344 132.471 21.4335 132.232 21.6125C131.994 21.788 131.836 22.0091 131.758 22.2758L129.684 22.1074C129.789 21.616 129.997 21.1913 130.305 20.8333C130.614 20.4718 131.013 20.1946 131.5 20.0016C131.992 19.805 132.56 19.7067 133.206 19.7067C133.655 19.7067 134.085 19.7594 134.496 19.8647C134.91 19.97 135.277 20.1332 135.596 20.3543C135.919 20.5754 136.174 20.8597 136.36 21.2071C136.546 21.5511 136.639 21.9635 136.639 22.4443V27.8983H134.512V26.777H134.449C134.319 27.0297 134.145 27.2525 133.927 27.4456C133.71 27.6351 133.448 27.7843 133.143 27.8931C132.838 27.9983 132.485 28.051 132.085 28.051ZM132.727 26.5032C133.057 26.5032 133.348 26.4383 133.601 26.3084C133.854 26.1751 134.052 25.9961 134.196 25.7715C134.34 25.5468 134.412 25.2924 134.412 25.0081V24.15C134.341 24.1956 134.245 24.2377 134.122 24.2763C134.003 24.3114 133.868 24.3448 133.717 24.3764C133.566 24.4044 133.415 24.4308 133.264 24.4553C133.113 24.4764 132.976 24.4957 132.853 24.5132C132.59 24.5518 132.36 24.6133 132.164 24.6975C131.967 24.7817 131.815 24.8958 131.706 25.0397C131.597 25.1801 131.543 25.3556 131.543 25.5661C131.543 25.8715 131.653 26.1049 131.874 26.2663C132.099 26.4243 132.383 26.5032 132.727 26.5032ZM142.022 31.0991C141.295 31.0991 140.672 30.9991 140.153 30.7991C139.637 30.6025 139.226 30.334 138.921 29.9936C138.615 29.6532 138.417 29.2706 138.326 28.8459L140.4 28.5669C140.463 28.7284 140.563 28.8793 140.7 29.0197C140.837 29.16 141.018 29.2724 141.242 29.3566C141.47 29.4443 141.748 29.4882 142.074 29.4882C142.562 29.4882 142.964 29.3689 143.28 29.1302C143.599 28.8951 143.759 28.5002 143.759 27.9457V26.4664H143.664C143.566 26.691 143.418 26.9033 143.222 27.1034C143.025 27.3034 142.773 27.4666 142.464 27.593C142.155 27.7193 141.786 27.7825 141.358 27.7825C140.751 27.7825 140.198 27.6421 139.7 27.3613C139.205 27.0771 138.81 26.6436 138.515 26.061C138.224 25.4749 138.078 24.7343 138.078 23.8394C138.078 22.9234 138.228 22.1582 138.526 21.5441C138.824 20.9299 139.221 20.4701 139.716 20.1648C140.214 19.8594 140.76 19.7067 141.353 19.7067C141.806 19.7067 142.185 19.784 142.49 19.9384C142.795 20.0893 143.041 20.2788 143.227 20.5069C143.417 20.7316 143.562 20.9527 143.664 21.1703H143.748V19.812H145.975V27.9773C145.975 28.6652 145.807 29.2408 145.47 29.704C145.133 30.1673 144.666 30.5148 144.069 30.7464C143.476 30.9816 142.794 31.0991 142.022 31.0991ZM142.069 26.0979C142.43 26.0979 142.736 26.0084 142.985 25.8294C143.238 25.6469 143.431 25.3871 143.564 25.0502C143.701 24.7098 143.769 24.3027 143.769 23.8288C143.769 23.355 143.703 22.9444 143.569 22.597C143.436 22.246 143.243 21.974 142.99 21.781C142.737 21.5879 142.43 21.4914 142.069 21.4914C141.7 21.4914 141.39 21.5914 141.137 21.7915C140.884 21.988 140.693 22.2618 140.563 22.6127C140.433 22.9637 140.368 23.3691 140.368 23.8288C140.368 24.2956 140.433 24.6992 140.563 25.0397C140.697 25.3766 140.888 25.6381 141.137 25.8241C141.39 26.0066 141.7 26.0979 142.069 26.0979ZM151.445 28.0563C150.613 28.0563 149.897 27.8878 149.297 27.5509C148.7 27.2104 148.241 26.7296 147.918 26.1084C147.595 25.4837 147.433 24.7449 147.433 23.892C147.433 23.0602 147.595 22.3302 147.918 21.702C148.241 21.0738 148.695 20.5842 149.281 20.2332C149.871 19.8822 150.562 19.7067 151.355 19.7067C151.889 19.7067 152.386 19.7927 152.845 19.9647C153.309 20.1332 153.712 20.3876 154.056 20.7281C154.404 21.0685 154.674 21.4967 154.867 22.0126C155.06 22.525 155.156 23.1252 155.156 23.8131V24.429H148.328V23.0392H153.045C153.045 22.7163 152.975 22.4302 152.835 22.1811C152.694 21.9319 152.5 21.7371 152.25 21.5967C152.005 21.4528 151.719 21.3809 151.392 21.3809C151.052 21.3809 150.75 21.4598 150.487 21.6178C150.227 21.7722 150.024 21.981 149.876 22.2442C149.729 22.5039 149.653 22.7935 149.65 23.1129V24.4343C149.65 24.8344 149.723 25.1801 149.871 25.4714C150.022 25.7627 150.234 25.9873 150.508 26.1452C150.782 26.3032 151.106 26.3821 151.482 26.3821C151.731 26.3821 151.959 26.347 152.166 26.2768C152.373 26.2067 152.551 26.1014 152.698 25.961C152.845 25.8206 152.958 25.6486 153.035 25.4451L155.109 25.5819C155.004 26.0803 154.788 26.5155 154.462 26.8875C154.139 27.256 153.721 27.5438 153.209 27.7509C152.7 27.9545 152.112 28.0563 151.445 28.0563Z" fill="black"/>
<rect x="128" y="64" width="149" height="43" rx="9.26554" fill="#F3F3F3"/>
<path d="M148.73 84.455C148.628 84.1356 148.491 83.8496 148.319 83.5969C148.151 83.3407 147.949 83.1231 147.714 82.9441C147.478 82.7616 147.21 82.6229 146.908 82.5282C146.61 82.4334 146.282 82.386 145.924 82.386C145.317 82.386 144.769 82.5422 144.281 82.8546C143.793 83.1669 143.407 83.625 143.123 84.2286C142.842 84.8288 142.702 85.564 142.702 86.4344C142.702 87.3084 142.844 88.0471 143.128 88.6508C143.413 89.2545 143.802 89.7125 144.297 90.0248C144.792 90.3372 145.355 90.4934 145.987 90.4934C146.573 90.4934 147.084 90.3741 147.519 90.1354C147.958 89.8967 148.296 89.5598 148.535 89.1246C148.777 88.6859 148.898 88.17 148.898 87.5768L149.319 87.6558H146.234V86.3134H150.472V87.54C150.472 88.4455 150.279 89.2317 149.893 89.8985C149.511 90.5618 148.981 91.0742 148.303 91.4357C147.629 91.7972 146.857 91.978 145.987 91.978C145.011 91.978 144.155 91.7534 143.418 91.3041C142.684 90.8549 142.112 90.2179 141.702 89.3931C141.291 88.5648 141.086 87.5821 141.086 86.445C141.086 85.5851 141.205 84.813 141.444 84.1286C141.682 83.4442 142.017 82.8634 142.449 82.386C142.884 81.9052 143.395 81.5385 143.981 81.2858C144.571 81.0295 145.215 80.9014 145.913 80.9014C146.496 80.9014 147.038 80.9874 147.54 81.1594C148.045 81.3314 148.495 81.5753 148.888 81.8912C149.284 82.207 149.612 82.5826 149.872 83.0178C150.132 83.4495 150.307 83.9285 150.399 84.455H148.73ZM155.896 91.9938C155.099 91.9938 154.413 91.8235 153.838 91.4831C153.265 91.1392 152.823 90.6566 152.511 90.0354C152.202 89.4106 152.048 88.6789 152.048 87.8401C152.048 87.0118 152.202 86.2818 152.511 85.65C152.823 85.0183 153.258 84.5252 153.816 84.1707C154.378 83.8162 155.034 83.639 155.785 83.639C156.242 83.639 156.684 83.7144 157.112 83.8654C157.54 84.0163 157.925 84.2532 158.265 84.5761C158.605 84.899 158.874 85.3184 159.07 85.8343C159.267 86.3467 159.365 86.9697 159.365 87.7032V88.2612H152.937V87.082H157.823C157.823 86.6678 157.739 86.3011 157.57 85.9817C157.402 85.6588 157.165 85.4044 156.859 85.2183C156.558 85.0323 156.203 84.9393 155.796 84.9393C155.354 84.9393 154.968 85.0481 154.638 85.2657C154.311 85.4798 154.059 85.7606 153.88 86.108C153.704 86.452 153.616 86.8258 153.616 87.2294V88.1507C153.616 88.6912 153.711 89.1509 153.901 89.53C154.094 89.909 154.362 90.1986 154.706 90.3986C155.05 90.5952 155.452 90.6934 155.912 90.6934C156.21 90.6934 156.482 90.6513 156.728 90.5671C156.973 90.4793 157.186 90.3495 157.365 90.1775C157.544 90.0055 157.681 89.7932 157.775 89.5405L159.265 89.809C159.146 90.2477 158.932 90.632 158.623 90.9619C158.318 91.2883 157.933 91.5428 157.47 91.7253C157.01 91.9043 156.486 91.9938 155.896 91.9938ZM162.686 87.0293V91.8306H161.112V83.7443H162.623V85.0604H162.723C162.909 84.6322 163.2 84.2883 163.597 84.0286C163.997 83.7688 164.5 83.639 165.108 83.639C165.659 83.639 166.141 83.7548 166.555 83.9864C166.969 84.2146 167.291 84.555 167.519 85.0078C167.747 85.4605 167.861 86.0203 167.861 86.6871V91.8306H166.287V86.8767C166.287 86.2905 166.134 85.8325 165.829 85.5026C165.523 85.1692 165.104 85.0025 164.571 85.0025C164.206 85.0025 163.881 85.0815 163.597 85.2394C163.316 85.3973 163.093 85.629 162.928 85.9343C162.767 86.2361 162.686 86.6012 162.686 87.0293ZM173.457 91.9938C172.66 91.9938 171.974 91.8235 171.399 91.4831C170.827 91.1392 170.384 90.6566 170.072 90.0354C169.763 89.4106 169.609 88.6789 169.609 87.8401C169.609 87.0118 169.763 86.2818 170.072 85.65C170.384 85.0183 170.82 84.5252 171.378 84.1707C171.939 83.8162 172.595 83.639 173.347 83.639C173.803 83.639 174.245 83.7144 174.673 83.8654C175.101 84.0163 175.486 84.2532 175.826 84.5761C176.167 84.899 176.435 85.3184 176.632 85.8343C176.828 86.3467 176.926 86.9697 176.926 87.7032V88.2612H170.498V87.082H175.384C175.384 86.6678 175.3 86.3011 175.131 85.9817C174.963 85.6588 174.726 85.4044 174.42 85.2183C174.119 85.0323 173.764 84.9393 173.357 84.9393C172.915 84.9393 172.529 85.0481 172.199 85.2657C171.872 85.4798 171.62 85.7606 171.441 86.108C171.265 86.452 171.178 86.8258 171.178 87.2294V88.1507C171.178 88.6912 171.272 89.1509 171.462 89.53C171.655 89.909 171.923 90.1986 172.267 90.3986C172.611 90.5952 173.013 90.6934 173.473 90.6934C173.771 90.6934 174.043 90.6513 174.289 90.5671C174.535 90.4793 174.747 90.3495 174.926 90.1775C175.105 90.0055 175.242 89.7932 175.336 89.5405L176.826 89.809C176.707 90.2477 176.493 90.632 176.184 90.9619C175.879 91.2883 175.494 91.5428 175.031 91.7253C174.571 91.9043 174.047 91.9938 173.457 91.9938ZM178.673 91.8306V83.7443H180.194V85.0288H180.279C180.426 84.5936 180.686 84.2514 181.058 84.0022C181.433 83.7495 181.858 83.6232 182.332 83.6232C182.43 83.6232 182.546 83.6267 182.679 83.6337C182.816 83.6407 182.923 83.6495 183 83.66V85.1657C182.937 85.1481 182.825 85.1288 182.663 85.1078C182.502 85.0832 182.34 85.0709 182.179 85.0709C181.807 85.0709 181.475 85.1499 181.184 85.3078C180.896 85.4623 180.668 85.6781 180.5 85.9554C180.331 86.2291 180.247 86.5415 180.247 86.8925V91.8306H178.673ZM186.643 92.0096C186.131 92.0096 185.668 91.9148 185.254 91.7253C184.839 91.5322 184.511 91.2532 184.269 90.8882C184.03 90.5232 183.911 90.0757 183.911 89.5458C183.911 89.0895 183.999 88.714 184.174 88.4192C184.35 88.1244 184.587 87.891 184.885 87.719C185.183 87.547 185.517 87.4172 185.885 87.3294C186.254 87.2417 186.629 87.175 187.012 87.1294C187.496 87.0732 187.889 87.0276 188.191 86.9925C188.493 86.9539 188.712 86.8925 188.849 86.8082C188.986 86.724 189.054 86.5871 189.054 86.3976V86.3607C189.054 85.901 188.925 85.5447 188.665 85.292C188.409 85.0393 188.026 84.913 187.517 84.913C186.987 84.913 186.57 85.0306 186.264 85.2657C185.962 85.4974 185.754 85.7553 185.638 86.0396L184.158 85.7027C184.334 85.2113 184.59 84.8147 184.927 84.5129C185.268 84.2076 185.659 83.9864 186.101 83.8496C186.543 83.7092 187.008 83.639 187.496 83.639C187.819 83.639 188.161 83.6776 188.523 83.7548C188.888 83.8285 189.228 83.9654 189.544 84.1654C189.863 84.3655 190.125 84.6515 190.329 85.0236C190.532 85.3921 190.634 85.8711 190.634 86.4608V91.8306H189.097V90.725H189.033C188.932 90.9286 188.779 91.1286 188.575 91.3252C188.372 91.5217 188.11 91.6849 187.791 91.8148C187.472 91.9446 187.089 92.0096 186.643 92.0096ZM186.986 90.7461C187.421 90.7461 187.793 90.6601 188.102 90.4881C188.414 90.3161 188.651 90.0915 188.812 89.8143C188.977 89.5335 189.06 89.2334 189.06 88.914V87.8717C189.004 87.9278 188.895 87.9805 188.733 88.0296C188.575 88.0752 188.395 88.1156 188.191 88.1507C187.988 88.1823 187.789 88.2121 187.596 88.2402C187.403 88.2647 187.242 88.2858 187.112 88.3033C186.807 88.342 186.528 88.4069 186.275 88.4981C186.026 88.5894 185.826 88.721 185.675 88.893C185.527 89.0614 185.454 89.2861 185.454 89.5668C185.454 89.9564 185.597 90.2512 185.885 90.4513C186.173 90.6478 186.54 90.7461 186.986 90.7461ZM196.505 83.7443V85.0078H192.088V83.7443H196.505ZM193.273 81.8069H194.847V89.4563C194.847 89.7616 194.892 89.9915 194.984 90.1459C195.075 90.2968 195.192 90.4004 195.336 90.4565C195.484 90.5092 195.643 90.5355 195.815 90.5355C195.942 90.5355 196.052 90.5267 196.147 90.5092C196.242 90.4916 196.316 90.4776 196.368 90.4671L196.652 91.7674C196.561 91.8025 196.431 91.8376 196.263 91.8727C196.094 91.9113 195.884 91.9323 195.631 91.9359C195.217 91.9429 194.831 91.8692 194.473 91.7147C194.115 91.5603 193.825 91.3217 193.604 90.9988C193.383 90.6759 193.273 90.2705 193.273 89.7827V81.8069ZM201.645 91.9938C200.848 91.9938 200.162 91.8235 199.586 91.4831C199.014 91.1392 198.572 90.6566 198.259 90.0354C197.951 89.4106 197.796 88.6789 197.796 87.8401C197.796 87.0118 197.951 86.2818 198.259 85.65C198.572 85.0183 199.007 84.5252 199.565 84.1707C200.127 83.8162 200.783 83.639 201.534 83.639C201.99 83.639 202.432 83.7144 202.861 83.8654C203.289 84.0163 203.673 84.2532 204.014 84.5761C204.354 84.899 204.623 85.3184 204.819 85.8343C205.016 86.3467 205.114 86.9697 205.114 87.7032V88.2612H198.686V87.082H203.571C203.571 86.6678 203.487 86.3011 203.319 85.9817C203.15 85.6588 202.913 85.4044 202.608 85.2183C202.306 85.0323 201.952 84.9393 201.545 84.9393C201.102 84.9393 200.716 85.0481 200.386 85.2657C200.06 85.4798 199.807 85.7606 199.628 86.108C199.453 86.452 199.365 86.8258 199.365 87.2294V88.1507C199.365 88.6912 199.46 89.1509 199.649 89.53C199.842 89.909 200.111 90.1986 200.455 90.3986C200.799 90.5952 201.201 90.6934 201.66 90.6934C201.959 90.6934 202.231 90.6513 202.476 90.5671C202.722 90.4793 202.934 90.3495 203.113 90.1775C203.292 90.0055 203.429 89.7932 203.524 89.5405L205.014 89.809C204.895 90.2477 204.68 90.632 204.372 90.9619C204.066 91.2883 203.682 91.5428 203.219 91.7253C202.759 91.9043 202.234 91.9938 201.645 91.9938Z" fill="black" fill-opacity="0.6"/>
<path d="M214.922 83.7443V85.4289H210.052V83.7443H214.922ZM211.158 81.8069H213.4V89.3457C213.4 89.5528 213.432 89.7142 213.495 89.8301C213.558 89.9424 213.646 90.0213 213.758 90.067C213.874 90.1126 214.007 90.1354 214.158 90.1354C214.264 90.1354 214.369 90.1266 214.474 90.1091C214.579 90.088 214.66 90.0722 214.716 90.0617L215.069 91.7305C214.957 91.7656 214.799 91.806 214.595 91.8516C214.392 91.9008 214.144 91.9306 213.853 91.9411C213.312 91.9622 212.839 91.8902 212.432 91.7253C212.028 91.5603 211.714 91.3041 211.489 90.9567C211.265 90.6092 211.154 90.1705 211.158 89.6405V81.8069ZM218.688 91.9832C218.172 91.9832 217.713 91.8937 217.309 91.7147C216.905 91.5322 216.586 91.2638 216.351 90.9093C216.119 90.5513 216.004 90.1056 216.004 89.5721C216.004 89.1229 216.086 88.7456 216.251 88.4402C216.416 88.1349 216.641 87.8892 216.925 87.7032C217.209 87.5172 217.532 87.3768 217.893 87.282C218.258 87.1873 218.641 87.1206 219.041 87.082C219.511 87.0328 219.89 86.9872 220.178 86.9451C220.466 86.8995 220.675 86.8328 220.805 86.7451C220.935 86.6573 221 86.5275 221 86.3555V86.3239C221 85.9905 220.894 85.7325 220.684 85.55C220.477 85.3675 220.182 85.2763 219.799 85.2763C219.396 85.2763 219.074 85.3657 218.836 85.5447C218.597 85.7202 218.439 85.9413 218.362 86.2081L216.288 86.0396C216.393 85.5483 216.6 85.1236 216.909 84.7656C217.218 84.4041 217.616 84.1268 218.104 83.9338C218.595 83.7373 219.164 83.639 219.81 83.639C220.259 83.639 220.689 83.6916 221.1 83.7969C221.514 83.9022 221.88 84.0654 222.2 84.2865C222.523 84.5076 222.777 84.7919 222.963 85.1394C223.149 85.4833 223.242 85.8957 223.242 86.3765V91.8306H221.115V90.7092H221.052C220.922 90.9619 220.749 91.1848 220.531 91.3778C220.313 91.5673 220.052 91.7165 219.747 91.8253C219.441 91.9306 219.089 91.9832 218.688 91.9832ZM219.331 90.4355C219.661 90.4355 219.952 90.3705 220.205 90.2407C220.457 90.1073 220.656 89.9283 220.799 89.7037C220.943 89.4791 221.015 89.2246 221.015 88.9404V88.0822C220.945 88.1279 220.849 88.17 220.726 88.2086C220.606 88.2437 220.471 88.277 220.32 88.3086C220.169 88.3367 220.019 88.363 219.868 88.3876C219.717 88.4086 219.58 88.4279 219.457 88.4455C219.194 88.4841 218.964 88.5455 218.767 88.6297C218.571 88.714 218.418 88.828 218.309 88.9719C218.201 89.1123 218.146 89.2878 218.146 89.4984C218.146 89.8037 218.257 90.0371 218.478 90.1986C218.702 90.3565 218.987 90.4355 219.331 90.4355ZM228.625 95.0314C227.899 95.0314 227.276 94.9314 226.756 94.7313C226.24 94.5348 225.83 94.2663 225.524 93.9258C225.219 93.5854 225.021 93.2028 224.929 92.7782L227.004 92.4992C227.067 92.6606 227.167 92.8115 227.304 92.9519C227.441 93.0923 227.621 93.2046 227.846 93.2888C228.074 93.3766 228.351 93.4204 228.678 93.4204C229.166 93.4204 229.568 93.3011 229.883 93.0625C230.203 92.8273 230.362 92.4325 230.362 91.8779V90.3986H230.268C230.169 90.6232 230.022 90.8356 229.825 91.0356C229.629 91.2357 229.376 91.3989 229.067 91.5252C228.759 91.6516 228.39 91.7147 227.962 91.7147C227.355 91.7147 226.802 91.5744 226.304 91.2936C225.809 91.0093 225.414 90.5759 225.119 89.9933C224.828 89.4071 224.682 88.6666 224.682 87.7716C224.682 86.8556 224.831 86.0905 225.13 85.4763C225.428 84.8621 225.824 84.4023 226.319 84.097C226.818 83.7917 227.363 83.639 227.957 83.639C228.409 83.639 228.788 83.7162 229.094 83.8706C229.399 84.0215 229.645 84.2111 229.831 84.4392C230.02 84.6638 230.166 84.8849 230.268 85.1025H230.352V83.7443H232.579V91.9095C232.579 92.5974 232.41 93.173 232.073 93.6363C231.736 94.0996 231.27 94.447 230.673 94.6787C230.08 94.9138 229.397 95.0314 228.625 95.0314ZM228.673 90.0301C229.034 90.0301 229.339 89.9406 229.589 89.7616C229.841 89.5791 230.034 89.3194 230.168 88.9825C230.305 88.642 230.373 88.2349 230.373 87.7611C230.373 87.2873 230.306 86.8767 230.173 86.5292C230.04 86.1782 229.847 85.9062 229.594 85.7132C229.341 85.5202 229.034 85.4237 228.673 85.4237C228.304 85.4237 227.993 85.5237 227.741 85.7237C227.488 85.9203 227.297 86.194 227.167 86.545C227.037 86.896 226.972 87.3013 226.972 87.7611C226.972 88.2279 227.037 88.6315 227.167 88.9719C227.3 89.3089 227.492 89.5703 227.741 89.7563C227.993 89.9389 228.304 90.0301 228.673 90.0301ZM236.606 81.0489V91.8306H234.363V81.0489H236.606ZM238.403 91.8306V83.7443H240.645V91.8306H238.403ZM239.529 82.7019C239.196 82.7019 238.91 82.5914 238.671 82.3702C238.436 82.1456 238.318 81.8771 238.318 81.5648C238.318 81.2559 238.436 80.9909 238.671 80.7698C238.91 80.5452 239.196 80.4329 239.529 80.4329C239.863 80.4329 240.147 80.5452 240.382 80.7698C240.621 80.9909 240.74 81.2559 240.74 81.5648C240.74 81.8771 240.621 82.1456 240.382 82.3702C240.147 82.5914 239.863 82.7019 239.529 82.7019ZM244.685 87.1557V91.8306H242.442V83.7443H244.579V85.171H244.674C244.853 84.7007 245.153 84.3286 245.574 84.0549C245.995 83.7776 246.506 83.639 247.106 83.639C247.668 83.639 248.157 83.7618 248.575 84.0075C248.993 84.2532 249.317 84.6041 249.549 85.0604C249.781 85.5132 249.896 86.0536 249.896 86.6819V91.8306H247.654V87.082C247.657 86.5871 247.531 86.2011 247.275 85.9238C247.018 85.643 246.666 85.5026 246.217 85.5026C245.915 85.5026 245.648 85.5676 245.416 85.6974C245.188 85.8273 245.009 86.0168 244.879 86.266C244.753 86.5117 244.688 86.8082 244.685 87.1557ZM255.349 91.9885C254.517 91.9885 253.801 91.82 253.201 91.4831C252.605 91.1427 252.145 90.6618 251.822 90.0406C251.499 89.4159 251.338 88.6771 251.338 87.8243C251.338 86.9925 251.499 86.2625 251.822 85.6342C252.145 85.006 252.599 84.5164 253.185 84.1654C253.775 83.8145 254.466 83.639 255.26 83.639C255.793 83.639 256.29 83.725 256.749 83.897C257.213 84.0654 257.616 84.3199 257.96 84.6603C258.308 85.0007 258.578 85.4289 258.771 85.9448C258.964 86.4573 259.061 87.0574 259.061 87.7453V88.3613H252.233V86.9714H256.95C256.95 86.6485 256.879 86.3625 256.739 86.1133C256.599 85.8641 256.404 85.6693 256.155 85.5289C255.909 85.3851 255.623 85.3131 255.296 85.3131C254.956 85.3131 254.654 85.3921 254.391 85.55C254.131 85.7044 253.928 85.9133 253.78 86.1765C253.633 86.4362 253.557 86.7257 253.554 87.0451V88.3665C253.554 88.7666 253.628 89.1123 253.775 89.4036C253.926 89.6949 254.138 89.9195 254.412 90.0775C254.686 90.2354 255.01 90.3144 255.386 90.3144C255.635 90.3144 255.863 90.2793 256.07 90.2091C256.277 90.1389 256.455 90.0336 256.602 89.8932C256.749 89.7528 256.862 89.5809 256.939 89.3773L259.013 89.5142C258.908 90.0126 258.692 90.4478 258.366 90.8198C258.043 91.1883 257.625 91.4761 257.113 91.6832C256.604 91.8867 256.016 91.9885 255.349 91.9885Z" fill="black"/>
<rect x="11.4575" y="127.864" width="163.073" height="43.548" rx="9.26554" fill="#F3F3F3"/>
<path d="M31.9841 148.387C31.8823 148.068 31.7454 147.782 31.5734 147.529C31.405 147.273 31.2032 147.055 30.968 146.876C30.7329 146.694 30.4644 146.555 30.1625 146.46C29.8642 146.366 29.5361 146.318 29.1781 146.318C28.5709 146.318 28.0234 146.474 27.5355 146.787C27.0477 147.099 26.6616 147.557 26.3774 148.161C26.0966 148.761 25.9562 149.496 25.9562 150.367C25.9562 151.24 26.0983 151.979 26.3826 152.583C26.6669 153.187 27.0565 153.645 27.5513 153.957C28.0462 154.269 28.6095 154.426 29.2412 154.426C29.8274 154.426 30.338 154.306 30.7732 154.068C31.2119 153.829 31.5506 153.492 31.7893 153.057C32.0314 152.618 32.1525 152.102 32.1525 151.509L32.5737 151.588H29.4887V150.245H33.7266V151.472C33.7266 152.378 33.5336 153.164 33.1475 153.831C32.765 154.494 32.235 155.006 31.5576 155.368C30.8838 155.729 30.1116 155.91 29.2412 155.91C28.2656 155.91 27.4092 155.685 26.6722 155.236C25.9386 154.787 25.3666 154.15 24.9559 153.325C24.5453 152.497 24.34 151.514 24.34 150.377C24.34 149.517 24.4593 148.745 24.698 148.061C24.9366 147.376 25.2718 146.795 25.7035 146.318C26.1387 145.837 26.6494 145.471 27.2355 145.218C27.8251 144.962 28.4691 144.834 29.1675 144.834C29.7501 144.834 30.2924 144.92 30.7943 145.092C31.2997 145.264 31.7489 145.507 32.142 145.823C32.5386 146.139 32.8667 146.515 33.1265 146.95C33.3862 147.382 33.5617 147.861 33.6529 148.387H31.9841ZM39.1504 155.926C38.3537 155.926 37.6675 155.756 37.0919 155.415C36.5199 155.071 36.0776 154.589 35.7653 153.967C35.4564 153.343 35.302 152.611 35.302 151.772C35.302 150.944 35.4564 150.214 35.7653 149.582C36.0776 148.95 36.5128 148.457 37.0709 148.103C37.6324 147.748 38.2887 147.571 39.0398 147.571C39.4961 147.571 39.9383 147.647 40.3665 147.797C40.7947 147.948 41.179 148.185 41.5194 148.508C41.8598 148.831 42.1283 149.25 42.3249 149.766C42.5214 150.279 42.6197 150.902 42.6197 151.635V152.193H36.1917V151.014H41.0772C41.0772 150.6 40.9929 150.233 40.8245 149.914C40.656 149.591 40.4191 149.336 40.1138 149.15C39.8119 148.964 39.4575 148.871 39.0503 148.871C38.6081 148.871 38.2221 148.98 37.8922 149.198C37.5658 149.412 37.3131 149.693 37.1341 150.04C36.9586 150.384 36.8708 150.758 36.8708 151.162V152.083C36.8708 152.623 36.9656 153.083 37.1551 153.462C37.3482 153.841 37.6166 154.131 37.9606 154.331C38.3045 154.527 38.7064 154.626 39.1662 154.626C39.4645 154.626 39.7365 154.583 39.9822 154.499C40.2278 154.411 40.4402 154.282 40.6192 154.11C40.7982 153.938 40.935 153.725 41.0298 153.473L42.5197 153.741C42.4003 154.18 42.1862 154.564 41.8774 154.894C41.572 155.22 41.1877 155.475 40.7245 155.657C40.2647 155.836 39.74 155.926 39.1504 155.926ZM45.9403 150.961V155.763H44.3662V147.676H45.8771V148.993H45.9771C46.1631 148.564 46.4544 148.22 46.851 147.961C47.2511 147.701 47.7548 147.571 48.3619 147.571C48.913 147.571 49.3955 147.687 49.8097 147.919C50.2238 148.147 50.545 148.487 50.7731 148.94C51.0012 149.393 51.1153 149.952 51.1153 150.619V155.763H49.5412V150.809C49.5412 150.223 49.3885 149.765 49.0832 149.435C48.7778 149.101 48.3584 148.935 47.825 148.935C47.46 148.935 47.1353 149.014 46.851 149.172C46.5703 149.329 46.3474 149.561 46.1824 149.866C46.021 150.168 45.9403 150.533 45.9403 150.961ZM56.7115 155.926C55.9148 155.926 55.2286 155.756 54.653 155.415C54.081 155.071 53.6387 154.589 53.3264 153.967C53.0175 153.343 52.8631 152.611 52.8631 151.772C52.8631 150.944 53.0175 150.214 53.3264 149.582C53.6387 148.95 54.0739 148.457 54.632 148.103C55.1935 147.748 55.8498 147.571 56.6009 147.571C57.0572 147.571 57.4994 147.647 57.9276 147.797C58.3557 147.948 58.74 148.185 59.0805 148.508C59.4209 148.831 59.6894 149.25 59.886 149.766C60.0825 150.279 60.1808 150.902 60.1808 151.635V152.193H53.7528V151.014H58.6383C58.6383 150.6 58.554 150.233 58.3856 149.914C58.2171 149.591 57.9802 149.336 57.6749 149.15C57.373 148.964 57.0186 148.871 56.6114 148.871C56.1692 148.871 55.7831 148.98 55.4532 149.198C55.1268 149.412 54.8741 149.693 54.6951 150.04C54.5197 150.384 54.4319 150.758 54.4319 151.162V152.083C54.4319 152.623 54.5267 153.083 54.7162 153.462C54.9092 153.841 55.1777 154.131 55.5217 154.331C55.8656 154.527 56.2675 154.626 56.7272 154.626C57.0256 154.626 57.2976 154.583 57.5432 154.499C57.7889 154.411 58.0013 154.282 58.1803 154.11C58.3592 153.938 58.4961 153.725 58.5909 153.473L60.0807 153.741C59.9614 154.18 59.7473 154.564 59.4385 154.894C59.1331 155.22 58.7488 155.475 58.2855 155.657C57.8258 155.836 57.3011 155.926 56.7115 155.926ZM61.9273 155.763V147.676H63.4487V148.961H63.5329C63.6804 148.526 63.9401 148.184 64.3121 147.934C64.6876 147.682 65.1123 147.555 65.5861 147.555C65.6844 147.555 65.8002 147.559 65.9336 147.566C66.0704 147.573 66.1775 147.582 66.2547 147.592V149.098C66.1915 149.08 66.0792 149.061 65.9178 149.04C65.7563 149.015 65.5949 149.003 65.4334 149.003C65.0614 149.003 64.7297 149.082 64.4384 149.24C64.1506 149.394 63.9225 149.61 63.7541 149.888C63.5856 150.161 63.5014 150.474 63.5014 150.825V155.763H61.9273ZM69.8977 155.942C69.3853 155.942 68.922 155.847 68.5079 155.657C68.0938 155.464 67.7656 155.185 67.5234 154.82C67.2848 154.455 67.1655 154.008 67.1655 153.478C67.1655 153.022 67.2532 152.646 67.4287 152.351C67.6042 152.056 67.8411 151.823 68.1394 151.651C68.4377 151.479 68.7711 151.349 69.1396 151.262C69.5082 151.174 69.8837 151.107 70.2663 151.061C70.7506 151.005 71.1437 150.96 71.4455 150.925C71.7473 150.886 71.9667 150.825 72.1036 150.74C72.2404 150.656 72.3089 150.519 72.3089 150.33V150.293C72.3089 149.833 72.179 149.477 71.9193 149.224C71.6631 148.971 71.2805 148.845 70.7716 148.845C70.2417 148.845 69.824 148.963 69.5187 149.198C69.2169 149.429 69.008 149.687 68.8922 149.972L67.4129 149.635C67.5884 149.143 67.8446 148.747 68.1815 148.445C68.5219 148.14 68.9133 147.919 69.3555 147.782C69.7977 147.641 70.2627 147.571 70.7506 147.571C71.0735 147.571 71.4157 147.61 71.7772 147.687C72.1422 147.761 72.4826 147.898 72.7985 148.098C73.1179 148.298 73.3793 148.584 73.5829 148.956C73.7865 149.324 73.8882 149.803 73.8882 150.393V155.763H72.351V154.657H72.2878C72.186 154.861 72.0334 155.061 71.8298 155.257C71.6263 155.454 71.3648 155.617 71.0454 155.747C70.726 155.877 70.3435 155.942 69.8977 155.942ZM70.2399 154.678C70.6751 154.678 71.0472 154.592 71.356 154.42C71.6684 154.248 71.9053 154.024 72.0667 153.746C72.2317 153.466 72.3141 153.166 72.3141 152.846V151.804C72.258 151.86 72.1492 151.913 71.9877 151.962C71.8298 152.007 71.6491 152.048 71.4455 152.083C71.2419 152.114 71.0436 152.144 70.8506 152.172C70.6576 152.197 70.4961 152.218 70.3663 152.235C70.0609 152.274 69.7819 152.339 69.5292 152.43C69.28 152.522 69.08 152.653 68.9291 152.825C68.7817 152.994 68.708 153.218 68.708 153.499C68.708 153.889 68.8519 154.183 69.1396 154.383C69.4274 154.58 69.7942 154.678 70.2399 154.678ZM79.7595 147.676V148.94H75.3426V147.676H79.7595ZM76.5271 145.739H78.1012V153.388C78.1012 153.694 78.1468 153.924 78.238 154.078C78.3293 154.229 78.4469 154.333 78.5908 154.389C78.7382 154.441 78.8979 154.468 79.0698 154.468C79.1962 154.468 79.3067 154.459 79.4015 154.441C79.4963 154.424 79.57 154.41 79.6226 154.399L79.9069 155.7C79.8156 155.735 79.6858 155.77 79.5173 155.805C79.3488 155.843 79.1383 155.864 78.8856 155.868C78.4714 155.875 78.0854 155.801 77.7274 155.647C77.3694 155.492 77.0798 155.254 76.8587 154.931C76.6376 154.608 76.5271 154.203 76.5271 153.715V145.739ZM84.899 155.926C84.1023 155.926 83.4161 155.756 82.8405 155.415C82.2685 155.071 81.8262 154.589 81.5139 153.967C81.205 153.343 81.0506 152.611 81.0506 151.772C81.0506 150.944 81.205 150.214 81.5139 149.582C81.8262 148.95 82.2614 148.457 82.8195 148.103C83.381 147.748 84.0373 147.571 84.7884 147.571C85.2447 147.571 85.6869 147.647 86.1151 147.797C86.5432 147.948 86.9275 148.185 87.268 148.508C87.6084 148.831 87.8769 149.25 88.0735 149.766C88.27 150.279 88.3683 150.902 88.3683 151.635V152.193H81.9403V151.014H86.8258C86.8258 150.6 86.7415 150.233 86.5731 149.914C86.4046 149.591 86.1677 149.336 85.8624 149.15C85.5605 148.964 85.2061 148.871 84.7989 148.871C84.3567 148.871 83.9706 148.98 83.6407 149.198C83.3143 149.412 83.0616 149.693 82.8826 150.04C82.7072 150.384 82.6194 150.758 82.6194 151.162V152.083C82.6194 152.623 82.7142 153.083 82.9037 153.462C83.0967 153.841 83.3652 154.131 83.7092 154.331C84.0531 154.527 84.455 154.626 84.9147 154.626C85.2131 154.626 85.4851 154.583 85.7307 154.499C85.9764 154.411 86.1888 154.282 86.3678 154.11C86.5467 153.938 86.6836 153.725 86.7784 153.473L88.2682 153.741C88.1489 154.18 87.9348 154.564 87.626 154.894C87.3206 155.22 86.9363 155.475 86.473 155.657C86.0133 155.836 85.4886 155.926 84.899 155.926Z" fill="black" fill-opacity="0.6"/>
<path d="M97.9602 155.763L99.7291 144.981H101.414L99.6448 155.763H97.9602ZM93.1327 153.088L93.4117 151.404H101.835L101.556 153.088H93.1327ZM94.1698 155.763L95.9386 144.981H97.6233L95.8544 155.763H94.1698ZM93.7486 149.34L94.0329 147.655H102.456L102.172 149.34H93.7486ZM105.745 151.088V155.763H103.502V144.981H105.682V149.103H105.777C105.959 148.626 106.254 148.252 106.661 147.982C107.068 147.708 107.579 147.571 108.193 147.571C108.755 147.571 109.244 147.694 109.662 147.94C110.083 148.182 110.409 148.531 110.641 148.987C110.876 149.44 110.992 149.982 110.989 150.614V155.763H108.746V151.014C108.749 150.516 108.623 150.128 108.367 149.851C108.114 149.573 107.76 149.435 107.303 149.435C106.998 149.435 106.728 149.5 106.493 149.63C106.261 149.759 106.079 149.949 105.945 150.198C105.815 150.444 105.749 150.74 105.745 151.088ZM115.059 155.915C114.543 155.915 114.084 155.826 113.68 155.647C113.276 155.464 112.957 155.196 112.722 154.841C112.49 154.483 112.374 154.038 112.374 153.504C112.374 153.055 112.457 152.678 112.622 152.372C112.787 152.067 113.011 151.821 113.296 151.635C113.58 151.449 113.903 151.309 114.264 151.214C114.629 151.119 115.012 151.053 115.412 151.014C115.882 150.965 116.261 150.919 116.549 150.877C116.837 150.832 117.046 150.765 117.176 150.677C117.306 150.589 117.37 150.46 117.37 150.288V150.256C117.37 149.923 117.265 149.665 117.055 149.482C116.848 149.3 116.553 149.208 116.17 149.208C115.767 149.208 115.445 149.298 115.207 149.477C114.968 149.652 114.81 149.873 114.733 150.14L112.659 149.972C112.764 149.48 112.971 149.056 113.28 148.698C113.589 148.336 113.987 148.059 114.475 147.866C114.966 147.669 115.535 147.571 116.181 147.571C116.63 147.571 117.06 147.624 117.47 147.729C117.885 147.834 118.251 147.998 118.571 148.219C118.894 148.44 119.148 148.724 119.334 149.072C119.52 149.415 119.613 149.828 119.613 150.309V155.763H117.486V154.641H117.423C117.293 154.894 117.12 155.117 116.902 155.31C116.684 155.499 116.423 155.649 116.117 155.757C115.812 155.863 115.459 155.915 115.059 155.915ZM115.702 154.368C116.032 154.368 116.323 154.303 116.576 154.173C116.828 154.039 117.026 153.86 117.17 153.636C117.314 153.411 117.386 153.157 117.386 152.872V152.014C117.316 152.06 117.22 152.102 117.097 152.141C116.977 152.176 116.842 152.209 116.691 152.241C116.54 152.269 116.389 152.295 116.239 152.32C116.088 152.341 115.951 152.36 115.828 152.378C115.565 152.416 115.335 152.478 115.138 152.562C114.942 152.646 114.789 152.76 114.68 152.904C114.571 153.044 114.517 153.22 114.517 153.431C114.517 153.736 114.628 153.969 114.849 154.131C115.073 154.289 115.358 154.368 115.702 154.368ZM128.081 149.982L126.028 150.109C125.993 149.933 125.917 149.775 125.802 149.635C125.686 149.491 125.533 149.377 125.344 149.293C125.158 149.205 124.935 149.161 124.675 149.161C124.327 149.161 124.034 149.235 123.796 149.382C123.557 149.526 123.438 149.719 123.438 149.961C123.438 150.154 123.515 150.317 123.669 150.451C123.824 150.584 124.089 150.691 124.464 150.772L125.928 151.067C126.714 151.228 127.3 151.488 127.686 151.846C128.072 152.204 128.265 152.674 128.265 153.257C128.265 153.787 128.109 154.252 127.797 154.652C127.488 155.052 127.063 155.364 126.523 155.589C125.986 155.81 125.366 155.921 124.664 155.921C123.594 155.921 122.741 155.698 122.106 155.252C121.474 154.803 121.104 154.192 120.995 153.42L123.201 153.304C123.268 153.631 123.429 153.88 123.685 154.052C123.941 154.22 124.27 154.304 124.67 154.304C125.063 154.304 125.379 154.229 125.617 154.078C125.859 153.924 125.982 153.725 125.986 153.483C125.982 153.28 125.896 153.113 125.728 152.983C125.559 152.85 125.3 152.748 124.949 152.678L123.548 152.399C122.759 152.241 122.171 151.967 121.785 151.577C121.402 151.188 121.211 150.691 121.211 150.088C121.211 149.568 121.351 149.121 121.632 148.745C121.916 148.37 122.315 148.08 122.827 147.876C123.343 147.673 123.947 147.571 124.638 147.571C125.659 147.571 126.463 147.787 127.049 148.219C127.639 148.65 127.983 149.238 128.081 149.982ZM131.92 151.088V155.763H129.678V144.981H131.857V149.103H131.952C132.134 148.626 132.429 148.252 132.836 147.982C133.243 147.708 133.754 147.571 134.368 147.571C134.93 147.571 135.419 147.694 135.837 147.94C136.258 148.182 136.585 148.531 136.816 148.987C137.051 149.44 137.167 149.982 137.164 150.614V155.763H134.921V151.014C134.925 150.516 134.798 150.128 134.542 149.851C134.289 149.573 133.935 149.435 133.479 149.435C133.173 149.435 132.903 149.5 132.668 149.63C132.436 149.759 132.254 149.949 132.12 150.198C131.99 150.444 131.924 150.74 131.92 151.088ZM143.23 147.676V149.361H138.36V147.676H143.23ZM139.466 145.739H141.708V153.278C141.708 153.485 141.74 153.646 141.803 153.762C141.866 153.874 141.954 153.953 142.066 153.999C142.182 154.045 142.315 154.068 142.466 154.068C142.572 154.068 142.677 154.059 142.782 154.041C142.888 154.02 142.968 154.004 143.024 153.994L143.377 155.663C143.265 155.698 143.107 155.738 142.903 155.784C142.7 155.833 142.452 155.863 142.161 155.873C141.621 155.894 141.147 155.822 140.74 155.657C140.336 155.492 140.022 155.236 139.797 154.889C139.573 154.541 139.462 154.103 139.466 153.573V145.739ZM146.996 155.915C146.481 155.915 146.021 155.826 145.617 155.647C145.214 155.464 144.894 155.196 144.659 154.841C144.427 154.483 144.312 154.038 144.312 153.504C144.312 153.055 144.394 152.678 144.559 152.372C144.724 152.067 144.949 151.821 145.233 151.635C145.517 151.449 145.84 151.309 146.202 151.214C146.567 151.119 146.949 151.053 147.349 151.014C147.819 150.965 148.199 150.919 148.486 150.877C148.774 150.832 148.983 150.765 149.113 150.677C149.243 150.589 149.308 150.46 149.308 150.288V150.256C149.308 149.923 149.202 149.665 148.992 149.482C148.785 149.3 148.49 149.208 148.107 149.208C147.704 149.208 147.383 149.298 147.144 149.477C146.905 149.652 146.747 149.873 146.67 150.14L144.596 149.972C144.701 149.48 144.908 149.056 145.217 148.698C145.526 148.336 145.924 148.059 146.412 147.866C146.903 147.669 147.472 147.571 148.118 147.571C148.567 147.571 148.997 147.624 149.408 147.729C149.822 147.834 150.189 147.998 150.508 148.219C150.831 148.44 151.085 148.724 151.271 149.072C151.457 149.415 151.55 149.828 151.55 150.309V155.763H149.423V154.641H149.36C149.23 154.894 149.057 155.117 148.839 155.31C148.621 155.499 148.36 155.649 148.055 155.757C147.749 155.863 147.397 155.915 146.996 155.915ZM147.639 154.368C147.969 154.368 148.26 154.303 148.513 154.173C148.765 154.039 148.964 153.86 149.108 153.636C149.251 153.411 149.323 153.157 149.323 152.872V152.014C149.253 152.06 149.157 152.102 149.034 152.141C148.915 152.176 148.779 152.209 148.628 152.241C148.478 152.269 148.327 152.295 148.176 152.32C148.025 152.341 147.888 152.36 147.765 152.378C147.502 152.416 147.272 152.478 147.075 152.562C146.879 152.646 146.726 152.76 146.617 152.904C146.509 153.044 146.454 153.22 146.454 153.431C146.454 153.736 146.565 153.969 146.786 154.131C147.011 154.289 147.295 154.368 147.639 154.368ZM156.933 158.964C156.207 158.964 155.584 158.863 155.064 158.663C154.548 158.467 154.138 158.198 153.832 157.858C153.527 157.518 153.329 157.135 153.238 156.71L155.312 156.431C155.375 156.593 155.475 156.744 155.612 156.884C155.749 157.024 155.929 157.137 156.154 157.221C156.382 157.309 156.659 157.353 156.986 157.353C157.474 157.353 157.876 157.233 158.191 156.995C158.511 156.759 158.671 156.365 158.671 155.81V154.331H158.576C158.477 154.555 158.33 154.768 158.134 154.968C157.937 155.168 157.684 155.331 157.375 155.457C157.067 155.584 156.698 155.647 156.27 155.647C155.663 155.647 155.11 155.506 154.612 155.226C154.117 154.941 153.722 154.508 153.427 153.925C153.136 153.339 152.99 152.599 152.99 151.704C152.99 150.788 153.139 150.023 153.438 149.408C153.736 148.794 154.133 148.334 154.627 148.029C155.126 147.724 155.672 147.571 156.265 147.571C156.717 147.571 157.096 147.648 157.402 147.803C157.707 147.954 157.953 148.143 158.139 148.371C158.328 148.596 158.474 148.817 158.576 149.035H158.66V147.676H160.887V155.842C160.887 156.53 160.718 157.105 160.381 157.568C160.045 158.032 159.578 158.379 158.981 158.611C158.388 158.846 157.705 158.964 156.933 158.964ZM156.981 153.962C157.342 153.962 157.647 153.873 157.897 153.694C158.149 153.511 158.342 153.252 158.476 152.915C158.613 152.574 158.681 152.167 158.681 151.693C158.681 151.219 158.614 150.809 158.481 150.461C158.348 150.11 158.155 149.838 157.902 149.645C157.649 149.452 157.342 149.356 156.981 149.356C156.612 149.356 156.301 149.456 156.049 149.656C155.796 149.852 155.605 150.126 155.475 150.477C155.345 150.828 155.28 151.233 155.28 151.693C155.28 152.16 155.345 152.564 155.475 152.904C155.608 153.241 155.8 153.502 156.049 153.688C156.301 153.871 156.612 153.962 156.981 153.962Z" fill="black"/>
</g>
<defs>
<linearGradient id="paint0_linear_2121_2270" x1="194.452" y1="187.6" x2="194.452" y2="150.084" gradientUnits="userSpaceOnUse">
<stop stop-color="#171923"/>
<stop offset="1" stop-color="#171923" stop-opacity="0"/>
</linearGradient>
<clipPath id="clip0_2121_2270">
<rect width="289" height="205" fill="white"/>
</clipPath>
</defs>
</svg>
